<mxfile host="app.diagrams.net" agent="Mozilla/5.0 (Windows NT 10.0; Win64; x64) AppleWebKit/537.36 (KHTML, like Gecko) Chrome/138.0.0.0 Safari/537.36 Edg/138.0.0.0" version="28.0.1">
  <diagram name="Page-1" id="YzFrnigtb5uBReaHWhYB">
    <mxGraphModel dx="925" dy="551" grid="1" gridSize="10" guides="1" tooltips="1" connect="1" arrows="1" fold="1" page="1" pageScale="1" pageWidth="850" pageHeight="1100" math="0" shadow="0">
      <root>
        <mxCell id="0" />
        <mxCell id="1" parent="0" />
        <mxCell id="zf8Nm5WWsWO-_jEQ5HFi-12" value="AWS Step Functions workflow" style="sketch=0;outlineConnect=0;gradientColor=none;html=1;whiteSpace=wrap;fontSize=12;fontStyle=0;shape=mxgraph.aws4.group;grIcon=mxgraph.aws4.group_aws_step_functions_workflow;strokeColor=#E8E8E8;fillColor=none;verticalAlign=top;align=left;spacingLeft=30;fontColor=#E8E8E8;dashed=0;" vertex="1" parent="1">
          <mxGeometry x="730" y="200" width="480" height="410" as="geometry" />
        </mxCell>
        <mxCell id="zf8Nm5WWsWO-_jEQ5HFi-1" value="" style="shape=actor;whiteSpace=wrap;html=1;" vertex="1" parent="1">
          <mxGeometry x="120" y="209" width="40" height="60" as="geometry" />
        </mxCell>
        <mxCell id="zf8Nm5WWsWO-_jEQ5HFi-6" style="edgeStyle=orthogonalEdgeStyle;rounded=0;orthogonalLoop=1;jettySize=auto;html=1;" edge="1" parent="1" source="zf8Nm5WWsWO-_jEQ5HFi-2" target="zf8Nm5WWsWO-_jEQ5HFi-4">
          <mxGeometry relative="1" as="geometry" />
        </mxCell>
        <mxCell id="zf8Nm5WWsWO-_jEQ5HFi-7" style="edgeStyle=orthogonalEdgeStyle;rounded=0;orthogonalLoop=1;jettySize=auto;html=1;" edge="1" parent="1" source="zf8Nm5WWsWO-_jEQ5HFi-2" target="zf8Nm5WWsWO-_jEQ5HFi-5">
          <mxGeometry relative="1" as="geometry" />
        </mxCell>
        <mxCell id="zf8Nm5WWsWO-_jEQ5HFi-2" value="WAF" style="sketch=0;points=[[0,0,0],[0.25,0,0],[0.5,0,0],[0.75,0,0],[1,0,0],[0,1,0],[0.25,1,0],[0.5,1,0],[0.75,1,0],[1,1,0],[0,0.25,0],[0,0.5,0],[0,0.75,0],[1,0.25,0],[1,0.5,0],[1,0.75,0]];outlineConnect=0;fontColor=#232F3E;fillColor=#DD344C;strokeColor=#ffffff;dashed=0;verticalLabelPosition=bottom;verticalAlign=top;align=center;html=1;fontSize=12;fontStyle=0;aspect=fixed;shape=mxgraph.aws4.resourceIcon;resIcon=mxgraph.aws4.waf;" vertex="1" parent="1">
          <mxGeometry x="260" y="200" width="78" height="78" as="geometry" />
        </mxCell>
        <mxCell id="zf8Nm5WWsWO-_jEQ5HFi-3" style="edgeStyle=orthogonalEdgeStyle;rounded=0;orthogonalLoop=1;jettySize=auto;html=1;entryX=0;entryY=0.5;entryDx=0;entryDy=0;entryPerimeter=0;" edge="1" parent="1" source="zf8Nm5WWsWO-_jEQ5HFi-1" target="zf8Nm5WWsWO-_jEQ5HFi-2">
          <mxGeometry relative="1" as="geometry" />
        </mxCell>
        <mxCell id="zf8Nm5WWsWO-_jEQ5HFi-4" value="Cloud Front" style="outlineConnect=0;dashed=0;verticalLabelPosition=bottom;verticalAlign=top;align=center;html=1;shape=mxgraph.aws3.cloudfront;fillColor=#F58536;gradientColor=none;" vertex="1" parent="1">
          <mxGeometry x="380" y="60" width="76.5" height="93" as="geometry" />
        </mxCell>
        <mxCell id="zf8Nm5WWsWO-_jEQ5HFi-9" style="edgeStyle=orthogonalEdgeStyle;rounded=0;orthogonalLoop=1;jettySize=auto;html=1;" edge="1" parent="1" source="zf8Nm5WWsWO-_jEQ5HFi-5" target="zf8Nm5WWsWO-_jEQ5HFi-8">
          <mxGeometry relative="1" as="geometry" />
        </mxCell>
        <mxCell id="zf8Nm5WWsWO-_jEQ5HFi-5" value="S3" style="outlineConnect=0;dashed=0;verticalLabelPosition=bottom;verticalAlign=top;align=center;html=1;shape=mxgraph.aws3.s3;fillColor=#E05243;gradientColor=none;" vertex="1" parent="1">
          <mxGeometry x="380" y="250" width="76.5" height="93" as="geometry" />
        </mxCell>
        <mxCell id="zf8Nm5WWsWO-_jEQ5HFi-8" value="Event Bridge" style="sketch=0;points=[[0,0,0],[0.25,0,0],[0.5,0,0],[0.75,0,0],[1,0,0],[0,1,0],[0.25,1,0],[0.5,1,0],[0.75,1,0],[1,1,0],[0,0.25,0],[0,0.5,0],[0,0.75,0],[1,0.25,0],[1,0.5,0],[1,0.75,0]];outlineConnect=0;fontColor=#232F3E;fillColor=#E7157B;strokeColor=#ffffff;dashed=0;verticalLabelPosition=bottom;verticalAlign=top;align=center;html=1;fontSize=12;fontStyle=0;aspect=fixed;shape=mxgraph.aws4.resourceIcon;resIcon=mxgraph.aws4.eventbridge;" vertex="1" parent="1">
          <mxGeometry x="580" y="257.5" width="78" height="78" as="geometry" />
        </mxCell>
        <mxCell id="zf8Nm5WWsWO-_jEQ5HFi-14" style="edgeStyle=orthogonalEdgeStyle;rounded=0;orthogonalLoop=1;jettySize=auto;html=1;" edge="1" parent="1" source="zf8Nm5WWsWO-_jEQ5HFi-10" target="zf8Nm5WWsWO-_jEQ5HFi-13">
          <mxGeometry relative="1" as="geometry" />
        </mxCell>
        <mxCell id="zf8Nm5WWsWO-_jEQ5HFi-10" value="Step Function" style="sketch=0;points=[[0,0,0],[0.25,0,0],[0.5,0,0],[0.75,0,0],[1,0,0],[0,1,0],[0.25,1,0],[0.5,1,0],[0.75,1,0],[1,1,0],[0,0.25,0],[0,0.5,0],[0,0.75,0],[1,0.25,0],[1,0.5,0],[1,0.75,0]];outlineConnect=0;fontColor=#232F3E;fillColor=#E7157B;strokeColor=#ffffff;dashed=0;verticalLabelPosition=bottom;verticalAlign=top;align=center;html=1;fontSize=12;fontStyle=0;aspect=fixed;shape=mxgraph.aws4.resourceIcon;resIcon=mxgraph.aws4.step_functions;" vertex="1" parent="1">
          <mxGeometry x="750" y="257.5" width="78" height="78" as="geometry" />
        </mxCell>
        <mxCell id="zf8Nm5WWsWO-_jEQ5HFi-11" style="edgeStyle=orthogonalEdgeStyle;rounded=0;orthogonalLoop=1;jettySize=auto;html=1;entryX=0;entryY=0.5;entryDx=0;entryDy=0;entryPerimeter=0;" edge="1" parent="1" source="zf8Nm5WWsWO-_jEQ5HFi-8" target="zf8Nm5WWsWO-_jEQ5HFi-10">
          <mxGeometry relative="1" as="geometry" />
        </mxCell>
        <mxCell id="zf8Nm5WWsWO-_jEQ5HFi-13" value="Fargate" style="sketch=0;points=[[0,0,0],[0.25,0,0],[0.5,0,0],[0.75,0,0],[1,0,0],[0,1,0],[0.25,1,0],[0.5,1,0],[0.75,1,0],[1,1,0],[0,0.25,0],[0,0.5,0],[0,0.75,0],[1,0.25,0],[1,0.5,0],[1,0.75,0]];outlineConnect=0;fontColor=#232F3E;fillColor=#ED7100;strokeColor=#ffffff;dashed=0;verticalLabelPosition=bottom;verticalAlign=top;align=center;html=1;fontSize=12;fontStyle=0;aspect=fixed;shape=mxgraph.aws4.resourceIcon;resIcon=mxgraph.aws4.fargate;" vertex="1" parent="1">
          <mxGeometry x="950" y="257.5" width="78" height="78" as="geometry" />
        </mxCell>
      </root>
    </mxGraphModel>
  </diagram>
</mxfile>
